<?xml version="1.0" standalone="no"?>
<!DOCTYPE svg PUBLIC "-//W3C//DTD SVG 20010904//EN"
 "http://www.w3.org/TR/2001/REC-SVG-20010904/DTD/svg10.dtd">
<svg version="1.0" xmlns="http://www.w3.org/2000/svg"
 width="270.000000pt" height="270.000000pt" viewBox="0 0 270.000000 270.000000"
 preserveAspectRatio="xMidYMid meet">

<g transform="translate(0.000000,270.000000) scale(0.100000,-0.100000)"
fill="#000000" stroke="none">
<path d="M0 1350 l0 -1350 1350 0 1350 0 0 1350 0 1350 -1350 0 -1350 0 0
-1350z m1629 763 c135 -47 261 -93 280 -100 l34 -14 -7 -82 c-8 -107 -74 -676
-81 -696 -6 -21 -474 -281 -504 -281 -21 0 -460 237 -489 264 -7 7 -17 39 -22
72 -17 106 -81 684 -78 706 3 18 44 36 278 119 151 54 290 98 309 99 18 0 144
-39 280 -87z"/>
<path d="M995 1967 c-16 -13 6 -39 278 -324 307 -322 308 -323 387 -323 25 0
29 6 55 91 23 77 26 93 14 104 -38 37 -677 465 -695 465 -11 0 -28 -6 -39 -13z"/>
<path d="M1541 1949 c-30 -10 -56 -20 -58 -22 -2 -2 35 -33 81 -70 l84 -65 7
55 c4 31 9 61 11 67 3 9 -58 58 -68 55 -2 0 -27 -9 -57 -20z"/>
<path d="M1021 1452 l-32 -77 38 -32 c24 -21 49 -33 67 -33 33 0 136 30 136
40 0 4 -40 45 -88 92 l-89 86 -32 -76z"/>
</g>
</svg>
