<?xml version="1.0" encoding="utf-8"?>
<!-- Generator: Adobe Illustrator 19.0.0, SVG Export Plug-In . SVG Version: 6.00 Build 0)  -->
<svg version="1.1" xmlns="http://www.w3.org/2000/svg" xmlns:xlink="http://www.w3.org/1999/xlink" x="0px" y="0px"
	 viewBox="0 0 124 132" enable-background="new 0 0 124 132" xml:space="preserve">
<g id="Layer_1" display="none">
	
		<image display="inline" overflow="visible" width="270" height="270" xlink:href="E:\Projects\dota2-project\src\assets\icon\mstile-150x150.png"  transform="matrix(1 0 0 1 -72.3333 -47)">
	</image>
</g>
<g id="Layer_2">
	<path id="XMLID_11_" fill="#FFFFFF" d="M62.7,2.2L3.3,23.3l9.3,78.3l50,28l49.9-28l9.1-78.3L62.7,2.2z M88.5,25.6l6,4.5l-2.1,13.9
		l-17-13.9L88.5,25.6z M33.7,92.4l-7.9-7.1l7.4-16.2l18.5,19.3L33.7,92.4z M96.4,91.4H84.9L23.2,25.6l11.1-0.9L102.2,72L96.4,91.4z"
		/>
</g>
<g id="Layer_3" display="none">
	<polygon id="XMLID_8_" display="inline" stroke="#000000" stroke-miterlimit="10" points="92.4,44 94.5,30.1 88.5,25.6 75.4,30.1 	
		"/>
	<polygon id="XMLID_7_" display="inline" stroke="#000000" stroke-miterlimit="10" points="25.7,85.3 33.1,69.1 51.6,88.4 
		33.7,92.3 	"/>
	<polygon id="XMLID_6_" display="inline" stroke="#000000" stroke-miterlimit="10" points="96.4,91.3 102.2,71.9 34.3,24.7 
		23.2,25.6 84.9,91.3 	"/>
</g>
</svg>
