<?xml version="1.0" standalone="no"?>
<!DOCTYPE svg PUBLIC "-//W3C//DTD SVG 20010904//EN"
 "http://www.w3.org/TR/2001/REC-SVG-20010904/DTD/svg10.dtd">
<svg version="1.0" xmlns="http://www.w3.org/2000/svg"
 width="1356.000000pt" height="1356.000000pt" viewBox="0 0 1356.000000 1356.000000"
 preserveAspectRatio="xMidYMid meet">
<metadata>
Created by potrace 1.11, written by Peter Selinger 2001-2013
</metadata>
<g transform="translate(0.000000,1356.000000) scale(0.100000,-0.100000)"
fill="#000000" stroke="none">
<path d="M6525 13471 c-143 -49 -307 -105 -365 -126 -58 -20 -130 -45 -160
-55 -58 -19 -357 -124 -620 -217 -85 -30 -198 -69 -250 -87 -143 -50 -457
-161 -615 -217 -234 -83 -345 -123 -725 -258 -201 -71 -437 -155 -525 -186
-88 -32 -182 -65 -210 -75 -70 -24 -360 -127 -420 -149 -27 -10 -81 -30 -120
-44 -38 -14 -254 -92 -480 -173 -225 -81 -446 -160 -490 -176 -44 -16 -84 -31
-90 -32 -5 -2 -21 -7 -35 -13 -14 -6 -52 -19 -85 -31 -33 -11 -141 -50 -240
-87 -99 -37 -193 -71 -210 -77 -16 -5 -39 -13 -50 -18 -11 -4 -76 -30 -144
-57 -89 -34 -136 -59 -164 -85 l-39 -37 6 -93 c4 -51 8 -104 10 -118 4 -26 16
-132 21 -185 3 -32 14 -131 20 -180 2 -16 7 -57 10 -90 3 -33 8 -73 10 -90 3
-16 7 -55 10 -85 3 -30 7 -68 9 -85 2 -16 7 -61 10 -100 4 -38 9 -81 11 -95 2
-14 7 -52 10 -85 3 -33 8 -71 10 -85 2 -14 6 -55 10 -92 3 -37 7 -75 9 -85 2
-10 7 -54 10 -98 4 -44 9 -87 11 -95 2 -8 7 -45 10 -82 3 -37 7 -75 9 -85 2
-10 7 -52 10 -93 4 -41 9 -88 11 -105 2 -16 7 -57 11 -90 3 -33 8 -71 10 -85
1 -14 6 -56 9 -95 3 -38 8 -77 10 -85 2 -8 7 -45 10 -82 3 -37 7 -75 9 -85 2
-10 7 -54 10 -98 4 -44 9 -87 11 -95 3 -13 13 -99 20 -185 1 -16 5 -50 8 -75
3 -25 9 -72 12 -105 4 -33 8 -71 10 -85 2 -14 7 -52 10 -85 3 -33 8 -73 10
-90 2 -16 7 -61 10 -100 4 -38 9 -79 11 -90 2 -11 6 -49 9 -85 3 -36 8 -76 10
-90 3 -14 7 -52 11 -85 3 -33 8 -71 9 -85 2 -14 6 -49 9 -77 3 -29 8 -67 10
-85 2 -18 7 -64 11 -103 4 -38 9 -78 11 -88 2 -10 6 -48 9 -85 3 -37 8 -74 10
-82 2 -8 7 -44 10 -80 3 -36 10 -99 15 -140 9 -70 12 -99 25 -217 3 -27 7 -61
9 -78 3 -16 7 -57 11 -90 4 -33 9 -71 11 -85 2 -14 6 -54 10 -90 3 -36 8 -72
9 -81 2 -9 6 -40 10 -70 3 -30 10 -88 15 -129 5 -41 12 -97 15 -125 11 -102
16 -140 20 -160 2 -11 7 -51 10 -90 4 -38 8 -81 11 -95 4 -23 28 -216 38 -305
2 -22 14 -114 25 -205 12 -91 24 -185 27 -210 3 -25 7 -56 9 -70 3 -14 7 -47
10 -75 3 -27 10 -79 15 -115 5 -36 12 -85 14 -110 9 -76 36 -284 41 -310 3
-14 7 -50 11 -80 3 -30 8 -64 10 -75 2 -11 6 -40 9 -65 3 -25 10 -72 15 -105
5 -33 19 -123 30 -200 12 -77 25 -162 30 -190 5 -27 12 -63 15 -80 19 -112 35
-175 44 -175 4 0 16 -8 27 -18 10 -10 73 -49 139 -87 66 -39 127 -74 137 -80
9 -5 29 -17 45 -26 15 -8 80 -45 143 -81 63 -36 132 -75 153 -87 21 -12 71
-40 110 -62 40 -23 86 -49 102 -59 17 -9 57 -32 90 -50 33 -18 157 -87 275
-153 118 -66 240 -133 270 -150 30 -16 60 -33 65 -37 6 -4 37 -22 70 -40 33
-18 206 -115 385 -215 179 -100 348 -194 375 -210 201 -112 587 -327 620 -345
22 -13 63 -35 90 -50 28 -15 187 -104 355 -197 168 -94 332 -185 365 -203 60
-34 94 -52 163 -91 20 -12 60 -34 87 -49 28 -15 106 -59 175 -97 69 -38 150
-83 180 -100 79 -43 464 -254 535 -293 33 -18 120 -64 192 -102 l133 -69 62
30 c69 33 545 286 623 331 17 10 59 33 95 52 70 38 1082 593 1140 625 19 11
168 93 330 183 162 89 315 174 340 188 25 14 115 64 200 112 85 47 186 103
223 123 37 21 84 47 105 59 20 11 152 85 292 163 140 78 334 186 430 240 96
54 195 109 220 123 25 14 113 63 195 110 83 47 170 96 195 110 25 14 74 42
110 62 36 20 85 48 110 62 25 14 90 51 145 83 55 32 125 72 155 88 30 17 120
69 200 117 131 78 146 90 157 124 15 42 48 198 58 266 3 25 12 81 20 125 8 44
17 100 20 125 7 52 13 95 20 130 2 14 7 50 10 80 4 30 8 66 10 80 5 35 24 176
30 230 3 25 9 79 15 120 5 41 12 100 15 130 7 63 14 124 20 160 2 14 7 52 10
85 3 33 7 70 9 82 3 12 7 51 10 88 4 37 11 97 16 133 5 37 12 92 15 122 3 30
8 66 10 80 2 14 6 54 10 90 4 36 9 79 11 95 2 17 6 53 9 80 3 28 10 82 15 120
5 39 12 95 15 125 3 30 12 109 20 175 7 66 16 143 19 170 4 28 8 66 10 85 3
19 7 62 11 95 8 77 14 122 19 160 3 17 8 62 12 100 3 39 8 79 10 90 2 11 6 47
9 80 3 33 14 130 25 215 10 85 22 184 25 220 3 36 8 76 10 90 2 14 6 50 10 80
7 64 12 106 20 175 3 28 8 70 10 95 3 25 7 61 10 80 4 35 33 291 41 365 2 22
6 56 8 76 2 20 7 65 11 100 3 35 8 71 10 79 2 8 7 49 10 90 4 41 8 82 10 90 1
8 6 49 10 90 4 41 9 82 10 90 1 8 6 44 9 80 7 64 11 102 21 178 2 20 7 62 10
92 3 30 8 71 10 90 3 19 7 60 10 90 5 52 7 69 19 165 3 22 8 67 11 100 3 33 7
76 10 95 2 19 7 64 11 100 3 36 7 72 9 80 1 8 6 49 10 90 3 41 8 86 10 100 4
23 8 59 20 179 2 24 7 60 9 80 3 20 8 63 11 96 3 33 8 76 10 95 3 19 7 60 10
90 5 59 9 98 24 230 6 47 13 114 16 150 3 36 8 81 10 100 3 19 7 69 11 110 3
41 7 91 10 110 2 19 6 108 9 197 7 195 -1 220 -74 251 -70 30 -367 141 -636
237 -132 47 -262 94 -290 105 -27 10 -81 29 -120 43 -38 14 -126 45 -195 70
-160 58 -359 129 -580 207 -96 34 -184 66 -195 70 -11 5 -67 25 -125 45 -58
20 -134 47 -170 60 -36 13 -105 38 -155 55 -49 17 -99 35 -110 40 -11 4 -47
17 -80 28 -59 20 -353 124 -690 244 -533 189 -1215 428 -1221 428 -3 0 -20 6
-37 14 -18 8 -41 16 -52 19 -11 3 -123 42 -250 87 -126 45 -241 85 -255 90
-14 4 -158 54 -320 110 -420 145 -665 227 -697 234 -20 5 -100 -19 -288 -83z
m-2613 -2366 c154 -105 310 -212 433 -296 61 -42 152 -105 204 -140 51 -35
148 -101 215 -147 66 -46 159 -109 206 -140 47 -31 87 -59 90 -62 3 -4 75 -54
160 -111 320 -217 387 -263 451 -311 37 -26 69 -48 73 -48 4 0 12 -5 19 -11 7
-6 73 -52 147 -103 147 -100 389 -265 460 -315 67 -46 319 -218 407 -279 43
-28 87 -59 98 -66 11 -8 162 -112 335 -230 173 -119 322 -220 330 -226 8 -6
195 -134 415 -284 220 -151 447 -307 505 -346 341 -234 747 -512 820 -562 47
-32 94 -64 105 -72 22 -16 553 -379 805 -551 234 -160 509 -349 547 -377 18
-12 117 -81 221 -151 l188 -129 -32 -96 c-35 -105 -193 -595 -281 -867 -30
-93 -65 -201 -78 -240 -20 -61 -93 -287 -248 -765 l-43 -135 -375 3 c-206 1
-502 4 -658 6 l-283 3 -65 69 c-36 38 -129 136 -207 218 -77 81 -163 171 -189
200 -50 52 -82 86 -382 401 -93 98 -181 190 -195 205 -49 52 -316 333 -365
385 -47 49 -243 255 -385 405 -34 36 -126 133 -204 215 -79 83 -162 170 -185
195 -24 25 -106 111 -183 193 -78 81 -156 164 -176 185 -35 37 -60 64 -364
382 -91 96 -185 195 -208 220 -23 25 -110 116 -194 204 -83 87 -167 175 -186
196 -19 20 -103 108 -186 196 -84 87 -171 179 -194 204 -23 25 -109 115 -190
200 -81 85 -167 175 -190 200 -48 52 -298 315 -446 470 -146 153 -245 258
-304 320 -28 30 -115 122 -193 204 -78 82 -159 167 -181 190 -21 22 -82 86
-135 142 -53 55 -161 169 -241 253 -80 85 -165 174 -189 200 -24 25 -85 89
-135 142 -125 131 -394 414 -444 468 -62 65 -48 82 138 161 69 29 143 60 165
70 46 20 214 91 261 109 34 13 71 17 284 26 80 4 146 8 148 10 2 2 43 -24 92
-58 49 -34 135 -93 192 -132z m5810 -59 c117 -79 267 -180 333 -225 66 -46
148 -101 183 -124 l62 -42 -5 -45 c-3 -25 -8 -52 -10 -60 -2 -8 -6 -33 -10
-55 -6 -43 -43 -274 -51 -315 -2 -14 -7 -41 -10 -60 -3 -19 -7 -46 -10 -60 -2
-14 -7 -41 -10 -60 -2 -19 -9 -57 -14 -85 -5 -27 -12 -68 -15 -90 -3 -23 -8
-52 -10 -65 -3 -14 -7 -41 -10 -62 -2 -20 -23 -144 -45 -275 -22 -131 -43
-256 -46 -278 -3 -22 -8 -47 -9 -55 -2 -8 -4 -25 -4 -37 -1 -13 -6 -23 -11
-23 -6 0 -76 51 -156 113 -80 61 -182 140 -227 175 -45 35 -133 102 -195 150
-210 161 -268 206 -573 442 -167 129 -311 240 -319 247 -13 11 -200 155 -465
358 -151 115 -166 128 -158 135 5 4 143 53 308 109 165 57 307 105 315 108 8
3 20 7 25 9 6 1 48 16 95 32 47 17 216 75 375 130 160 55 322 111 360 125 39
14 75 26 82 26 7 1 108 -64 225 -143z m-5967 -4771 c56 -53 486 -469 617 -597
197 -190 506 -489 570 -550 39 -37 179 -172 311 -300 350 -339 385 -373 448
-433 l57 -54 -42 -15 c-43 -16 -109 -38 -396 -131 -96 -31 -362 -117 -590
-192 l-415 -137 -290 -1 -290 -1 -75 57 c-66 51 -421 329 -460 362 -8 7 -87
69 -175 139 l-160 126 -23 109 c-12 59 -23 111 -22 115 0 4 13 35 29 70 38 82
221 497 231 523 4 11 20 47 35 80 14 33 33 74 40 90 7 17 57 129 110 250 53
121 104 238 114 260 10 22 32 72 49 110 17 39 42 95 55 125 13 30 37 83 52
118 l28 63 70 -68 c39 -37 94 -90 122 -118z"/>
</g>
</svg>
