<?xml version="1.0" encoding="UTF-8" standalone="no"?>
<!-- Created with Inkscape (http://www.inkscape.org/) -->

<svg
   xmlns:dc="http://purl.org/dc/elements/1.1/"
   xmlns:cc="http://creativecommons.org/ns#"
   xmlns:rdf="http://www.w3.org/1999/02/22-rdf-syntax-ns#"
   xmlns:svg="http://www.w3.org/2000/svg"
   xmlns="http://www.w3.org/2000/svg"
   xmlns:sodipodi="http://sodipodi.sourceforge.net/DTD/sodipodi-0.dtd"
   xmlns:inkscape="http://www.inkscape.org/namespaces/inkscape"
   width="400mm"
   height="400mm"
   viewBox="0 0 1417.3226 1417.3227"
   id="svg4705"
   version="1.1"
   inkscape:version="0.91 r13725"
   inkscape:export-filename="C:\Users\Adam\Desktop\favicon-test.png"
   inkscape:export-xdpi="90"
   inkscape:export-ydpi="90"
   sodipodi:docname="favicon-dota2-final.svg">
  <defs
     id="defs4707" />
  <sodipodi:namedview
     id="base"
     pagecolor="#ffffff"
     bordercolor="#666666"
     borderopacity="1.0"
     inkscape:pageopacity="0.0"
     inkscape:pageshadow="2"
     inkscape:zoom="0.35"
     inkscape:cx="654.92324"
     inkscape:cy="205.78384"
     inkscape:document-units="px"
     inkscape:current-layer="layer1"
     showgrid="false"
     inkscape:window-width="2560"
     inkscape:window-height="1387"
     inkscape:window-x="1912"
     inkscape:window-y="22"
     inkscape:window-maximized="1" />
  <metadata
     id="metadata4710">
    <rdf:RDF>
      <cc:Work
         rdf:about="">
        <dc:format>image/svg+xml</dc:format>
        <dc:type
           rdf:resource="http://purl.org/dc/dcmitype/StillImage" />
        <dc:title></dc:title>
      </cc:Work>
    </rdf:RDF>
  </metadata>
  <g
     inkscape:label="Layer 1"
     inkscape:groupmode="layer"
     id="layer1"
     transform="translate(0,364.96048)">
    <path
       style="display:inline;fill:#000000;enable-background:new"
       d="M 713.98438 45.875 C 707.07735 45.875 136.70698 248.2962 99.892578 263.8125 C 82.381173 271.1932 81.976175 271.93091 84.359375 292.09961 C 85.705375 303.48981 96.564478 401.54715 108.49219 510.00391 C 145.98589 850.92683 177.61084 1100.8771 184.02734 1107.0117 C 189.49124 1112.2362 275.23517 1160.4973 596.42969 1339.1309 C 658.59389 1373.7038 710.86223 1402.0209 712.58203 1402.0879 C 719.18173 1402.2939 1234.909 1116.1087 1244.1797 1107.0957 C 1247.2973 1104.0648 1255.3927 1056.135 1262.168 1000.584 C 1286.048 804.79117 1337.4142 350.88151 1340.3145 310.02148 C 1342.9833 272.42288 1342.4235 268.32776 1334.168 265.03906 C 1276.942 242.24246 721.26748 45.875 713.98438 45.875 z M 398.0332 272.5 L 1149.2402 787.08008 L 1080.8711 997.88672 L 949.39453 996.26562 L 293.18945 305.45312 L 297.38477 299.96094 L 356.625 274.66016 L 398.0332 272.5 z M 985.25 282.58398 L 1064.8398 336.69141 L 1037.9609 500.05859 L 826.76953 337.03906 L 985.25 282.58398 z M 390.66992 755.89062 L 610.35352 968.16992 L 464.7207 1015.5605 L 407.45508 1015.5605 L 321.0625 947.43555 L 316.12695 925.2207 L 390.66992 755.89062 z "
       id="path4328-8"
       transform="translate(-6.1035149e-5,-364.96048)" />
  </g>
</svg>
